<svg xmlns="http://www.w3.org/2000/svg" width="140" height="140" viewBox="0 0 140 140" shape-rendering="crispEdges">
<rect x="55" y="30" width="10" height="10" fill="#40bfbf"/>
<rect x="65" y="30" width="10" height="10" fill="#40bfbf"/>
<rect x="75" y="30" width="10" height="10" fill="#40bfbf"/>
<rect x="35" y="40" width="10" height="10" fill="#40bf40"/>
<rect x="45" y="40" width="10" height="10" fill="#40bf40"/>
<rect x="55" y="40" width="10" height="10" fill="#40bf40"/>
<rect x="65" y="40" width="10" height="10" fill="#40bf40"/>
<rect x="75" y="40" width="10" height="10" fill="#40bf40"/>
<rect x="85" y="40" width="10" height="10" fill="#40bf40"/>
<rect x="95" y="40" width="10" height="10" fill="#40bf40"/>
<rect x="35" y="50" width="10" height="10" fill="#40bf40"/>
<rect x="45" y="50" width="10" height="10" fill="#40bf40"/>
<rect x="55" y="50" width="10" height="10" fill="#246b24"/>
<rect x="65" y="50" width="10" height="10" fill="#40bf40"/>
<rect x="75" y="50" width="10" height="10" fill="#246b24"/>
<rect x="85" y="50" width="10" height="10" fill="#40bf40"/>
<rect x="95" y="50" width="10" height="10" fill="#40bf40"/>
<rect x="35" y="60" width="10" height="10" fill="#40bf40"/>
<rect x="40" y="65" width="5" height="5" fill="#246b24"/>
<rect x="45" y="60" width="10" height="10" fill="#40bf40"/>
<rect x="55" y="60" width="10" height="10" fill="#40bf40"/>
<rect x="65" y="60" width="10" height="10" fill="#40bf40"/>
<rect x="75" y="60" width="10" height="10" fill="#40bf40"/>
<rect x="85" y="60" width="10" height="10" fill="#40bf40"/>
<rect x="95" y="60" width="10" height="10" fill="#40bf40"/>
<rect x="35" y="70" width="10" height="10" fill="#40bf40"/>
<rect x="45" y="70" width="10" height="10" fill="#40bf40"/>
<rect x="45" y="70" width="10" height="5" fill="#246b24"/>
<rect x="55" y="70" width="10" height="10" fill="#40bf40"/>
<rect x="55" y="70" width="10" height="5" fill="#246b24"/>
<rect x="65" y="70" width="10" height="10" fill="#40bf40"/>
<rect x="65" y="70" width="10" height="5" fill="#246b24"/>
<rect x="75" y="70" width="10" height="10" fill="#40bf40"/>
<rect x="75" y="70" width="10" height="5" fill="#246b24"/>
<rect x="85" y="70" width="10" height="10" fill="#40bf40"/>
<rect x="85" y="70" width="10" height="5" fill="#246b24"/>
<rect x="95" y="70" width="10" height="10" fill="#40bf40"/>
<rect x="35" y="80" width="10" height="10" fill="#40bf40"/>
<rect x="45" y="80" width="10" height="10" fill="#40bf40"/>
<rect x="55" y="80" width="10" height="10" fill="#40bf40"/>
<rect x="65" y="80" width="10" height="10" fill="#40bf40"/>
<rect x="75" y="80" width="10" height="10" fill="#40bf40"/>
<rect x="85" y="80" width="10" height="10" fill="#40bf40"/>
<rect x="95" y="80" width="10" height="10" fill="#40bf40"/>
<rect x="35" y="90" width="10" height="10" fill="#40bf40"/>
<rect x="45" y="90" width="10" height="10" fill="#40bf40"/>
<rect x="55" y="90" width="10" height="10" fill="#40bf40"/>
<rect x="65" y="90" width="10" height="10" fill="#40bf40"/>
<rect x="75" y="90" width="10" height="10" fill="#40bf40"/>
<rect x="85" y="90" width="10" height="10" fill="#40bf40"/>
<rect x="95" y="90" width="10" height="10" fill="#40bf40"/>
<rect x="45" y="100" width="5" height="10" fill="#40bf40"/>
<rect x="85" y="100" width="5" height="10" fill="#40bf40"/>
</svg>