<svg xmlns="http://www.w3.org/2000/svg" width="1200" height="630" viewBox="0 0 1200 630">
  <rect width="1200" height="630" fill="#04090a"/>

  <!-- Eyebrow -->
  <text x="72" y="88" text-anchor="start" font-family="'Courier New', monospace" font-size="22" fill="#6ea99f" letter-spacing="2.4">TERMINAL-FIRST MULTI-AGENT WORKSPACE</text>

  <!-- Headline -->
  <text x="72" y="210" text-anchor="start" font-family="'Inter', 'SF Pro Display', Arial, sans-serif" font-size="86" font-weight="800" fill="#e9f7f2">AI agents that build</text>
  <text x="72" y="306" text-anchor="start" font-family="'Inter', 'SF Pro Display', Arial, sans-serif" font-size="86" font-weight="800" fill="#e9f7f2">and run companies.</text>

  <!-- Body -->
  <text x="72" y="368" text-anchor="start" font-family="'Inter', 'SF Pro Text', Arial, sans-serif" font-size="36" fill="#b7d6cd">Run your AI team in one shared terminal workspace.</text>
  <text x="72" y="414" text-anchor="start" font-family="'Inter', 'SF Pro Text', Arial, sans-serif" font-size="30" fill="#9fc4ba">Message agents, tasks, calendar, and browser workflows.</text>

  <!-- Avatars -->
  <g transform="translate(72, 486)">
<rect x="44" y="16" width="8" height="8" fill="#4040bf"/>
<rect x="52" y="16" width="8" height="8" fill="#4040bf"/>
<rect x="60" y="16" width="8" height="8" fill="#4040bf"/>
<rect x="44" y="24" width="8" height="8" fill="#4040bf"/>
<rect x="52" y="24" width="8" height="8" fill="#4040bf"/>
<rect x="60" y="24" width="8" height="8" fill="#4040bf"/>
<rect x="28" y="32" width="8" height="8" fill="#4040bf"/>
<rect x="36" y="32" width="8" height="8" fill="#4040bf"/>
<rect x="44" y="32" width="8" height="8" fill="#4040bf"/>
<rect x="52" y="32" width="8" height="8" fill="#4040bf"/>
<rect x="60" y="32" width="8" height="8" fill="#4040bf"/>
<rect x="68" y="32" width="8" height="8" fill="#4040bf"/>
<rect x="76" y="32" width="8" height="8" fill="#4040bf"/>
<rect x="28" y="40" width="8" height="8" fill="#bfbf40"/>
<rect x="36" y="40" width="8" height="8" fill="#bfbf40"/>
<rect x="44" y="40" width="8" height="8" fill="#bfbf40"/>
<rect x="52" y="40" width="8" height="8" fill="#bfbf40"/>
<rect x="60" y="40" width="8" height="8" fill="#bfbf40"/>
<rect x="68" y="40" width="8" height="8" fill="#bfbf40"/>
<rect x="76" y="40" width="8" height="8" fill="#bfbf40"/>
<rect x="28" y="48" width="8" height="8" fill="#bfbf40"/>
<rect x="36" y="48" width="8" height="8" fill="#6b6b24"/>
<rect x="44" y="48" width="8" height="8" fill="#bfbf40"/>
<rect x="52" y="48" width="8" height="8" fill="#bfbf40"/>
<rect x="60" y="48" width="8" height="8" fill="#bfbf40"/>
<rect x="68" y="48" width="8" height="8" fill="#6b6b24"/>
<rect x="76" y="48" width="8" height="8" fill="#bfbf40"/>
<rect x="28" y="56" width="8" height="8" fill="#bfbf40"/>
<rect x="36" y="56" width="8" height="8" fill="#bfbf40"/>
<rect x="40" y="60" width="4" height="4" fill="#6b6b24"/>
<rect x="44" y="56" width="8" height="8" fill="#bfbf40"/>
<rect x="52" y="56" width="8" height="8" fill="#bfbf40"/>
<rect x="60" y="56" width="8" height="8" fill="#bfbf40"/>
<rect x="68" y="56" width="8" height="8" fill="#bfbf40"/>
<rect x="68" y="60" width="4" height="4" fill="#6b6b24"/>
<rect x="76" y="56" width="8" height="8" fill="#bfbf40"/>
<rect x="28" y="64" width="8" height="8" fill="#bfbf40"/>
<rect x="36" y="64" width="8" height="8" fill="#bfbf40"/>
<rect x="44" y="64" width="8" height="8" fill="#bfbf40"/>
<rect x="44" y="64" width="8" height="4" fill="#6b6b24"/>
<rect x="52" y="64" width="8" height="8" fill="#bfbf40"/>
<rect x="52" y="64" width="8" height="4" fill="#6b6b24"/>
<rect x="60" y="64" width="8" height="8" fill="#bfbf40"/>
<rect x="60" y="64" width="8" height="4" fill="#6b6b24"/>
<rect x="68" y="64" width="8" height="8" fill="#bfbf40"/>
<rect x="76" y="64" width="8" height="8" fill="#bfbf40"/>
<rect x="20" y="76" width="8" height="4" fill="#bfbf40"/>
<rect x="28" y="72" width="8" height="8" fill="#bfbf40"/>
<rect x="36" y="72" width="8" height="8" fill="#bfbf40"/>
<rect x="44" y="72" width="8" height="8" fill="#bfbf40"/>
<rect x="52" y="72" width="8" height="8" fill="#bfbf40"/>
<rect x="60" y="72" width="8" height="8" fill="#bfbf40"/>
<rect x="68" y="72" width="8" height="8" fill="#bfbf40"/>
<rect x="76" y="72" width="8" height="8" fill="#bfbf40"/>
<rect x="84" y="76" width="8" height="4" fill="#bfbf40"/>
<rect x="28" y="80" width="8" height="8" fill="#bfbf40"/>
<rect x="36" y="80" width="8" height="8" fill="#bfbf40"/>
<rect x="44" y="80" width="8" height="8" fill="#bfbf40"/>
<rect x="52" y="80" width="8" height="8" fill="#bfbf40"/>
<rect x="60" y="80" width="8" height="8" fill="#bfbf40"/>
<rect x="68" y="80" width="8" height="8" fill="#bfbf40"/>
<rect x="76" y="80" width="8" height="8" fill="#bfbf40"/>
<rect x="36" y="88" width="8" height="8" fill="#bfbf40"/>
<rect x="60" y="88" width="8" height="8" fill="#bfbf40"/>
</g>
<g transform="translate(204, 486)">
<rect x="28" y="20" width="8" height="8" fill="#40bf40"/>
<rect x="76" y="20" width="8" height="8" fill="#40bf40"/>
<rect x="28" y="28" width="8" height="8" fill="#40bf40"/>
<rect x="36" y="28" width="8" height="8" fill="#40bf40"/>
<rect x="68" y="28" width="8" height="8" fill="#40bf40"/>
<rect x="76" y="28" width="8" height="8" fill="#40bf40"/>
<rect x="28" y="36" width="8" height="8" fill="#bf4040"/>
<rect x="36" y="36" width="8" height="8" fill="#bf4040"/>
<rect x="44" y="36" width="8" height="8" fill="#bf4040"/>
<rect x="52" y="36" width="8" height="8" fill="#bf4040"/>
<rect x="60" y="36" width="8" height="8" fill="#bf4040"/>
<rect x="68" y="36" width="8" height="8" fill="#bf4040"/>
<rect x="76" y="36" width="8" height="8" fill="#bf4040"/>
<rect x="28" y="44" width="8" height="8" fill="#bf4040"/>
<rect x="36" y="44" width="8" height="8" fill="#bf4040"/>
<rect x="36" y="48" width="8" height="4" fill="#6b2424"/>
<rect x="44" y="44" width="8" height="8" fill="#bf4040"/>
<rect x="52" y="44" width="8" height="8" fill="#bf4040"/>
<rect x="60" y="44" width="8" height="8" fill="#bf4040"/>
<rect x="68" y="44" width="8" height="8" fill="#bf4040"/>
<rect x="68" y="48" width="8" height="4" fill="#6b2424"/>
<rect x="76" y="44" width="8" height="8" fill="#bf4040"/>
<rect x="28" y="52" width="8" height="8" fill="#bf4040"/>
<rect x="32" y="56" width="4" height="4" fill="#6b2424"/>
<rect x="36" y="52" width="8" height="8" fill="#bf4040"/>
<rect x="44" y="52" width="8" height="8" fill="#bf4040"/>
<rect x="52" y="52" width="8" height="8" fill="#bf4040"/>
<rect x="60" y="52" width="8" height="8" fill="#bf4040"/>
<rect x="68" y="52" width="8" height="8" fill="#bf4040"/>
<rect x="76" y="52" width="8" height="8" fill="#bf4040"/>
<rect x="76" y="56" width="4" height="4" fill="#6b2424"/>
<rect x="28" y="60" width="8" height="8" fill="#bf4040"/>
<rect x="36" y="60" width="8" height="8" fill="#bf4040"/>
<rect x="36" y="60" width="8" height="4" fill="#6b2424"/>
<rect x="44" y="60" width="8" height="8" fill="#bf4040"/>
<rect x="44" y="60" width="8" height="4" fill="#6b2424"/>
<rect x="52" y="60" width="8" height="8" fill="#bf4040"/>
<rect x="52" y="60" width="8" height="4" fill="#6b2424"/>
<rect x="60" y="60" width="8" height="8" fill="#bf4040"/>
<rect x="60" y="60" width="8" height="4" fill="#6b2424"/>
<rect x="68" y="60" width="8" height="8" fill="#bf4040"/>
<rect x="68" y="60" width="8" height="4" fill="#6b2424"/>
<rect x="76" y="60" width="8" height="8" fill="#bf4040"/>
<rect x="28" y="68" width="8" height="8" fill="#bf4040"/>
<rect x="36" y="68" width="8" height="8" fill="#bf4040"/>
<rect x="44" y="68" width="8" height="8" fill="#bf4040"/>
<rect x="52" y="68" width="8" height="8" fill="#bf4040"/>
<rect x="60" y="68" width="8" height="8" fill="#bf4040"/>
<rect x="68" y="68" width="8" height="8" fill="#bf4040"/>
<rect x="76" y="68" width="8" height="8" fill="#bf4040"/>
<rect x="28" y="76" width="8" height="8" fill="#bf4040"/>
<rect x="36" y="76" width="8" height="8" fill="#bf4040"/>
<rect x="44" y="76" width="8" height="8" fill="#bf4040"/>
<rect x="52" y="76" width="8" height="8" fill="#bf4040"/>
<rect x="60" y="76" width="8" height="8" fill="#bf4040"/>
<rect x="68" y="76" width="8" height="8" fill="#bf4040"/>
<rect x="76" y="76" width="8" height="8" fill="#bf4040"/>
<rect x="28" y="84" width="8" height="8" fill="#bf4040"/>
<rect x="44" y="84" width="4" height="8" fill="#bf4040"/>
<rect x="60" y="84" width="4" height="8" fill="#bf4040"/>
<rect x="76" y="84" width="8" height="8" fill="#bf4040"/>
</g>
<g transform="translate(336, 486)">
<rect x="36" y="20" width="8" height="8" fill="#bf8040"/>
<rect x="52" y="20" width="8" height="8" fill="#bf8040"/>
<rect x="68" y="20" width="8" height="8" fill="#bf8040"/>
<rect x="36" y="28" width="8" height="8" fill="#bf8040"/>
<rect x="44" y="28" width="8" height="8" fill="#bf8040"/>
<rect x="52" y="28" width="8" height="8" fill="#bf8040"/>
<rect x="60" y="28" width="8" height="8" fill="#bf8040"/>
<rect x="68" y="28" width="8" height="8" fill="#bf8040"/>
<rect x="28" y="36" width="8" height="8" fill="#40bfbf"/>
<rect x="36" y="36" width="8" height="8" fill="#40bfbf"/>
<rect x="44" y="36" width="8" height="8" fill="#40bfbf"/>
<rect x="52" y="36" width="8" height="8" fill="#40bfbf"/>
<rect x="60" y="36" width="8" height="8" fill="#40bfbf"/>
<rect x="68" y="36" width="8" height="8" fill="#40bfbf"/>
<rect x="76" y="36" width="8" height="8" fill="#40bfbf"/>
<rect x="28" y="44" width="8" height="8" fill="#246b6b"/>
<rect x="36" y="44" width="8" height="8" fill="#246b6b"/>
<rect x="44" y="44" width="8" height="8" fill="#40bfbf"/>
<rect x="52" y="44" width="8" height="8" fill="#40bfbf"/>
<rect x="60" y="44" width="8" height="8" fill="#40bfbf"/>
<rect x="68" y="44" width="8" height="8" fill="#246b6b"/>
<rect x="76" y="44" width="8" height="8" fill="#246b6b"/>
<rect x="28" y="52" width="8" height="8" fill="#40bfbf"/>
<rect x="36" y="52" width="8" height="8" fill="#40bfbf"/>
<rect x="40" y="56" width="4" height="4" fill="#246b6b"/>
<rect x="44" y="52" width="8" height="8" fill="#40bfbf"/>
<rect x="52" y="52" width="8" height="8" fill="#40bfbf"/>
<rect x="60" y="52" width="8" height="8" fill="#40bfbf"/>
<rect x="68" y="52" width="8" height="8" fill="#40bfbf"/>
<rect x="68" y="56" width="4" height="4" fill="#246b6b"/>
<rect x="76" y="52" width="8" height="8" fill="#40bfbf"/>
<rect x="28" y="60" width="8" height="8" fill="#40bfbf"/>
<rect x="36" y="60" width="8" height="8" fill="#40bfbf"/>
<rect x="44" y="60" width="8" height="8" fill="#40bfbf"/>
<rect x="44" y="60" width="8" height="4" fill="#246b6b"/>
<rect x="52" y="60" width="8" height="8" fill="#40bfbf"/>
<rect x="52" y="60" width="8" height="4" fill="#246b6b"/>
<rect x="60" y="60" width="8" height="8" fill="#40bfbf"/>
<rect x="60" y="60" width="8" height="4" fill="#246b6b"/>
<rect x="68" y="60" width="8" height="8" fill="#40bfbf"/>
<rect x="76" y="60" width="8" height="8" fill="#40bfbf"/>
<rect x="28" y="72" width="8" height="4" fill="#40bfbf"/>
<rect x="36" y="68" width="8" height="8" fill="#40bfbf"/>
<rect x="44" y="68" width="8" height="8" fill="#40bfbf"/>
<rect x="52" y="68" width="8" height="8" fill="#40bfbf"/>
<rect x="60" y="68" width="8" height="8" fill="#40bfbf"/>
<rect x="68" y="68" width="8" height="8" fill="#40bfbf"/>
<rect x="76" y="72" width="8" height="4" fill="#40bfbf"/>
<rect x="36" y="76" width="8" height="8" fill="#40bfbf"/>
<rect x="44" y="76" width="8" height="8" fill="#40bfbf"/>
<rect x="52" y="76" width="8" height="8" fill="#40bfbf"/>
<rect x="60" y="76" width="8" height="8" fill="#40bfbf"/>
<rect x="68" y="76" width="8" height="8" fill="#40bfbf"/>
<rect x="36" y="84" width="4" height="8" fill="#40bfbf"/>
<rect x="68" y="84" width="4" height="8" fill="#40bfbf"/>
</g>
<g transform="translate(468, 486)">
<rect x="52" y="16" width="8" height="8" fill="#bf40bf"/>
<rect x="44" y="24" width="8" height="8" fill="#bf40bf"/>
<rect x="52" y="24" width="8" height="8" fill="#bf40bf"/>
<rect x="60" y="24" width="8" height="8" fill="#bf40bf"/>
<rect x="36" y="32" width="8" height="8" fill="#bf40bf"/>
<rect x="44" y="32" width="8" height="8" fill="#bf40bf"/>
<rect x="52" y="32" width="8" height="8" fill="#bf40bf"/>
<rect x="60" y="32" width="8" height="8" fill="#bf40bf"/>
<rect x="68" y="32" width="8" height="8" fill="#bf40bf"/>
<rect x="28" y="40" width="8" height="8" fill="#8040bf"/>
<rect x="36" y="40" width="8" height="8" fill="#8040bf"/>
<rect x="44" y="40" width="8" height="8" fill="#8040bf"/>
<rect x="52" y="40" width="8" height="8" fill="#8040bf"/>
<rect x="60" y="40" width="8" height="8" fill="#8040bf"/>
<rect x="68" y="40" width="8" height="8" fill="#8040bf"/>
<rect x="76" y="40" width="8" height="8" fill="#8040bf"/>
<rect x="28" y="48" width="8" height="8" fill="#8040bf"/>
<rect x="36" y="48" width="8" height="8" fill="#8040bf"/>
<rect x="38" y="48" width="4" height="8" fill="#47246b"/>
<rect x="44" y="48" width="8" height="8" fill="#8040bf"/>
<rect x="52" y="48" width="8" height="8" fill="#8040bf"/>
<rect x="60" y="48" width="8" height="8" fill="#8040bf"/>
<rect x="68" y="48" width="8" height="8" fill="#8040bf"/>
<rect x="70" y="48" width="4" height="8" fill="#47246b"/>
<rect x="76" y="48" width="8" height="8" fill="#8040bf"/>
<rect x="28" y="56" width="8" height="8" fill="#8040bf"/>
<rect x="36" y="56" width="8" height="8" fill="#8040bf"/>
<rect x="44" y="56" width="8" height="8" fill="#8040bf"/>
<rect x="48" y="60" width="4" height="4" fill="#47246b"/>
<rect x="52" y="56" width="8" height="8" fill="#8040bf"/>
<rect x="60" y="56" width="8" height="8" fill="#8040bf"/>
<rect x="60" y="60" width="4" height="4" fill="#47246b"/>
<rect x="68" y="56" width="8" height="8" fill="#8040bf"/>
<rect x="76" y="56" width="8" height="8" fill="#8040bf"/>
<rect x="28" y="64" width="8" height="8" fill="#8040bf"/>
<rect x="36" y="64" width="8" height="8" fill="#8040bf"/>
<rect x="44" y="64" width="8" height="8" fill="#8040bf"/>
<rect x="52" y="64" width="8" height="8" fill="#8040bf"/>
<rect x="52" y="64" width="8" height="4" fill="#47246b"/>
<rect x="60" y="64" width="8" height="8" fill="#8040bf"/>
<rect x="68" y="64" width="8" height="8" fill="#8040bf"/>
<rect x="76" y="64" width="8" height="8" fill="#8040bf"/>
<rect x="20" y="76" width="8" height="4" fill="#8040bf"/>
<rect x="28" y="72" width="8" height="8" fill="#8040bf"/>
<rect x="36" y="72" width="8" height="8" fill="#8040bf"/>
<rect x="44" y="72" width="8" height="8" fill="#8040bf"/>
<rect x="52" y="72" width="8" height="8" fill="#8040bf"/>
<rect x="60" y="72" width="8" height="8" fill="#8040bf"/>
<rect x="68" y="72" width="8" height="8" fill="#8040bf"/>
<rect x="76" y="72" width="8" height="8" fill="#8040bf"/>
<rect x="84" y="76" width="8" height="4" fill="#8040bf"/>
<rect x="36" y="80" width="8" height="8" fill="#8040bf"/>
<rect x="44" y="80" width="8" height="8" fill="#8040bf"/>
<rect x="52" y="80" width="8" height="8" fill="#8040bf"/>
<rect x="60" y="80" width="8" height="8" fill="#8040bf"/>
<rect x="68" y="80" width="8" height="8" fill="#8040bf"/>
<rect x="28" y="88" width="8" height="8" fill="#8040bf"/>
<rect x="76" y="88" width="8" height="8" fill="#8040bf"/>
</g>
<g transform="translate(600, 486)">
<rect x="28" y="28" width="8" height="8" fill="#40bf40"/>
<rect x="36" y="28" width="8" height="8" fill="#40bf40"/>
<rect x="44" y="28" width="8" height="8" fill="#40bf40"/>
<rect x="52" y="28" width="8" height="8" fill="#40bf40"/>
<rect x="60" y="28" width="8" height="8" fill="#40bf40"/>
<rect x="68" y="28" width="8" height="8" fill="#40bf40"/>
<rect x="76" y="28" width="8" height="8" fill="#40bf40"/>
<rect x="28" y="36" width="8" height="8" fill="#40bf40"/>
<rect x="36" y="36" width="8" height="8" fill="#40bf40"/>
<rect x="44" y="36" width="8" height="8" fill="#246b24"/>
<rect x="52" y="36" width="8" height="8" fill="#40bf40"/>
<rect x="60" y="36" width="8" height="8" fill="#246b24"/>
<rect x="68" y="36" width="8" height="8" fill="#40bf40"/>
<rect x="76" y="36" width="8" height="8" fill="#40bf40"/>
<rect x="28" y="44" width="8" height="8" fill="#40bf40"/>
<rect x="36" y="44" width="8" height="8" fill="#40bf40"/>
<rect x="40" y="48" width="4" height="4" fill="#246b24"/>
<rect x="44" y="44" width="8" height="8" fill="#40bf40"/>
<rect x="52" y="44" width="8" height="8" fill="#40bf40"/>
<rect x="60" y="44" width="8" height="8" fill="#40bf40"/>
<rect x="68" y="44" width="8" height="8" fill="#40bf40"/>
<rect x="76" y="44" width="8" height="8" fill="#40bf40"/>
<rect x="28" y="52" width="8" height="8" fill="#40bf40"/>
<rect x="36" y="52" width="8" height="8" fill="#40bf40"/>
<rect x="44" y="52" width="8" height="8" fill="#40bf40"/>
<rect x="44" y="52" width="8" height="4" fill="#246b24"/>
<rect x="52" y="52" width="8" height="8" fill="#40bf40"/>
<rect x="52" y="52" width="8" height="4" fill="#246b24"/>
<rect x="60" y="52" width="8" height="8" fill="#40bf40"/>
<rect x="60" y="52" width="8" height="4" fill="#246b24"/>
<rect x="68" y="52" width="8" height="8" fill="#40bf40"/>
<rect x="76" y="52" width="8" height="8" fill="#40bf40"/>
<rect x="20" y="64" width="8" height="4" fill="#40bf40"/>
<rect x="28" y="60" width="8" height="8" fill="#40bf40"/>
<rect x="36" y="60" width="8" height="8" fill="#40bf40"/>
<rect x="44" y="60" width="8" height="8" fill="#40bf40"/>
<rect x="52" y="60" width="8" height="8" fill="#40bf40"/>
<rect x="60" y="60" width="8" height="8" fill="#40bf40"/>
<rect x="68" y="60" width="8" height="8" fill="#40bf40"/>
<rect x="76" y="60" width="8" height="8" fill="#40bf40"/>
<rect x="84" y="64" width="8" height="4" fill="#40bf40"/>
<rect x="28" y="68" width="8" height="8" fill="#40bf40"/>
<rect x="36" y="68" width="8" height="8" fill="#40bf40"/>
<rect x="44" y="68" width="8" height="8" fill="#40bf40"/>
<rect x="52" y="68" width="8" height="8" fill="#40bf40"/>
<rect x="60" y="68" width="8" height="8" fill="#40bf40"/>
<rect x="68" y="68" width="8" height="8" fill="#40bf40"/>
<rect x="76" y="68" width="8" height="8" fill="#40bf40"/>
<rect x="36" y="76" width="4" height="8" fill="#40bf40"/>
<rect x="76" y="76" width="4" height="8" fill="#40bf40"/>
</g>
<g transform="translate(732, 486)">
<rect x="28" y="24" width="8" height="8" fill="#80bf40"/>
<rect x="36" y="24" width="8" height="8" fill="#80bf40"/>
<rect x="68" y="24" width="8" height="8" fill="#80bf40"/>
<rect x="76" y="24" width="8" height="8" fill="#80bf40"/>
<rect x="28" y="32" width="8" height="8" fill="#bf4080"/>
<rect x="36" y="32" width="8" height="8" fill="#bf4080"/>
<rect x="44" y="32" width="8" height="8" fill="#bf4080"/>
<rect x="52" y="32" width="8" height="8" fill="#bf4080"/>
<rect x="60" y="32" width="8" height="8" fill="#bf4080"/>
<rect x="68" y="32" width="8" height="8" fill="#bf4080"/>
<rect x="76" y="32" width="8" height="8" fill="#bf4080"/>
<rect x="28" y="40" width="8" height="8" fill="#bf4080"/>
<rect x="36" y="40" width="8" height="8" fill="#bf4080"/>
<rect x="44" y="40" width="8" height="8" fill="#bf4080"/>
<rect x="46" y="40" width="4" height="8" fill="#6b2447"/>
<rect x="52" y="40" width="8" height="8" fill="#bf4080"/>
<rect x="60" y="40" width="8" height="8" fill="#bf4080"/>
<rect x="62" y="40" width="4" height="8" fill="#6b2447"/>
<rect x="68" y="40" width="8" height="8" fill="#bf4080"/>
<rect x="76" y="40" width="8" height="8" fill="#bf4080"/>
<rect x="28" y="48" width="8" height="8" fill="#bf4080"/>
<rect x="36" y="48" width="8" height="8" fill="#bf4080"/>
<rect x="44" y="48" width="8" height="8" fill="#bf4080"/>
<rect x="52" y="48" width="8" height="8" fill="#bf4080"/>
<rect x="60" y="48" width="8" height="8" fill="#bf4080"/>
<rect x="68" y="48" width="8" height="8" fill="#bf4080"/>
<rect x="76" y="48" width="8" height="8" fill="#bf4080"/>
<rect x="76" y="52" width="4" height="4" fill="#6b2447"/>
<rect x="28" y="56" width="8" height="8" fill="#bf4080"/>
<rect x="36" y="56" width="8" height="8" fill="#bf4080"/>
<rect x="36" y="56" width="8" height="4" fill="#6b2447"/>
<rect x="44" y="56" width="8" height="8" fill="#bf4080"/>
<rect x="44" y="56" width="8" height="4" fill="#6b2447"/>
<rect x="52" y="56" width="8" height="8" fill="#bf4080"/>
<rect x="52" y="56" width="8" height="4" fill="#6b2447"/>
<rect x="60" y="56" width="8" height="8" fill="#bf4080"/>
<rect x="60" y="56" width="8" height="4" fill="#6b2447"/>
<rect x="68" y="56" width="8" height="8" fill="#bf4080"/>
<rect x="68" y="56" width="8" height="4" fill="#6b2447"/>
<rect x="76" y="56" width="8" height="8" fill="#bf4080"/>
<rect x="28" y="64" width="8" height="8" fill="#bf4080"/>
<rect x="36" y="64" width="8" height="8" fill="#bf4080"/>
<rect x="44" y="64" width="8" height="8" fill="#bf4080"/>
<rect x="52" y="64" width="8" height="8" fill="#bf4080"/>
<rect x="60" y="64" width="8" height="8" fill="#bf4080"/>
<rect x="68" y="64" width="8" height="8" fill="#bf4080"/>
<rect x="76" y="64" width="8" height="8" fill="#bf4080"/>
<rect x="36" y="72" width="8" height="8" fill="#bf4080"/>
<rect x="44" y="72" width="8" height="8" fill="#bf4080"/>
<rect x="52" y="72" width="8" height="8" fill="#bf4080"/>
<rect x="60" y="72" width="8" height="8" fill="#bf4080"/>
<rect x="68" y="72" width="8" height="8" fill="#bf4080"/>
<rect x="44" y="80" width="4" height="8" fill="#bf4080"/>
<rect x="60" y="80" width="4" height="8" fill="#bf4080"/>
</g>
<g transform="translate(864, 486)">
<rect x="52" y="20" width="8" height="8" fill="#40bfbf"/>
<rect x="44" y="28" width="8" height="8" fill="#40bfbf"/>
<rect x="52" y="28" width="8" height="8" fill="#40bfbf"/>
<rect x="60" y="28" width="8" height="8" fill="#40bfbf"/>
<rect x="28" y="36" width="8" height="8" fill="#4080bf"/>
<rect x="36" y="36" width="8" height="8" fill="#4080bf"/>
<rect x="44" y="36" width="8" height="8" fill="#4080bf"/>
<rect x="52" y="36" width="8" height="8" fill="#4080bf"/>
<rect x="60" y="36" width="8" height="8" fill="#4080bf"/>
<rect x="68" y="36" width="8" height="8" fill="#4080bf"/>
<rect x="76" y="36" width="8" height="8" fill="#4080bf"/>
<rect x="28" y="44" width="8" height="8" fill="#24476b"/>
<rect x="36" y="44" width="8" height="8" fill="#4080bf"/>
<rect x="44" y="44" width="8" height="8" fill="#4080bf"/>
<rect x="52" y="44" width="8" height="8" fill="#4080bf"/>
<rect x="60" y="44" width="8" height="8" fill="#4080bf"/>
<rect x="68" y="44" width="8" height="8" fill="#4080bf"/>
<rect x="76" y="44" width="8" height="8" fill="#24476b"/>
<rect x="28" y="52" width="8" height="8" fill="#4080bf"/>
<rect x="36" y="52" width="8" height="8" fill="#4080bf"/>
<rect x="44" y="52" width="8" height="8" fill="#4080bf"/>
<rect x="52" y="52" width="8" height="8" fill="#4080bf"/>
<rect x="60" y="52" width="8" height="8" fill="#4080bf"/>
<rect x="68" y="52" width="8" height="8" fill="#4080bf"/>
<rect x="68" y="56" width="4" height="4" fill="#24476b"/>
<rect x="76" y="52" width="8" height="8" fill="#4080bf"/>
<rect x="28" y="60" width="8" height="8" fill="#4080bf"/>
<rect x="36" y="60" width="8" height="8" fill="#4080bf"/>
<rect x="44" y="60" width="8" height="8" fill="#4080bf"/>
<rect x="44" y="60" width="8" height="4" fill="#24476b"/>
<rect x="52" y="60" width="8" height="8" fill="#4080bf"/>
<rect x="52" y="60" width="8" height="4" fill="#24476b"/>
<rect x="60" y="60" width="8" height="8" fill="#4080bf"/>
<rect x="60" y="60" width="8" height="4" fill="#24476b"/>
<rect x="68" y="60" width="8" height="8" fill="#4080bf"/>
<rect x="76" y="60" width="8" height="8" fill="#4080bf"/>
<rect x="28" y="68" width="8" height="8" fill="#4080bf"/>
<rect x="36" y="68" width="8" height="8" fill="#4080bf"/>
<rect x="44" y="68" width="8" height="8" fill="#4080bf"/>
<rect x="52" y="68" width="8" height="8" fill="#4080bf"/>
<rect x="60" y="68" width="8" height="8" fill="#4080bf"/>
<rect x="68" y="68" width="8" height="8" fill="#4080bf"/>
<rect x="76" y="68" width="8" height="8" fill="#4080bf"/>
<rect x="28" y="76" width="8" height="8" fill="#4080bf"/>
<rect x="36" y="76" width="8" height="8" fill="#4080bf"/>
<rect x="44" y="76" width="8" height="8" fill="#4080bf"/>
<rect x="52" y="76" width="8" height="8" fill="#4080bf"/>
<rect x="60" y="76" width="8" height="8" fill="#4080bf"/>
<rect x="68" y="76" width="8" height="8" fill="#4080bf"/>
<rect x="76" y="76" width="8" height="8" fill="#4080bf"/>
<rect x="36" y="84" width="8" height="8" fill="#4080bf"/>
<rect x="60" y="84" width="8" height="8" fill="#4080bf"/>
</g>

</svg>