<svg xmlns="http://www.w3.org/2000/svg" width="140" height="140" viewBox="0 0 140 140" shape-rendering="crispEdges">
<rect width="140" height="140" fill="#0d0d26"/>
<rect x="25" y="25" width="10" height="10" fill="#40bf80"/>
<rect x="35" y="25" width="10" height="10" fill="#40bf80"/>
<rect x="95" y="25" width="10" height="10" fill="#40bf80"/>
<rect x="105" y="25" width="10" height="10" fill="#40bf80"/>
<rect x="25" y="35" width="10" height="10" fill="#40bf80"/>
<rect x="35" y="35" width="10" height="10" fill="#40bf80"/>
<rect x="45" y="35" width="10" height="10" fill="#40bf80"/>
<rect x="85" y="35" width="10" height="10" fill="#40bf80"/>
<rect x="95" y="35" width="10" height="10" fill="#40bf80"/>
<rect x="105" y="35" width="10" height="10" fill="#40bf80"/>
<rect x="35" y="45" width="10" height="10" fill="#4040bf"/>
<rect x="45" y="45" width="10" height="10" fill="#4040bf"/>
<rect x="55" y="45" width="10" height="10" fill="#4040bf"/>
<rect x="65" y="45" width="10" height="10" fill="#4040bf"/>
<rect x="75" y="45" width="10" height="10" fill="#4040bf"/>
<rect x="85" y="45" width="10" height="10" fill="#4040bf"/>
<rect x="95" y="45" width="10" height="10" fill="#4040bf"/>
<rect x="35" y="55" width="10" height="10" fill="#4040bf"/>
<rect x="45" y="55" width="10" height="10" fill="#24246b"/>
<rect x="55" y="55" width="10" height="10" fill="#4040bf"/>
<rect x="65" y="55" width="10" height="10" fill="#4040bf"/>
<rect x="75" y="55" width="10" height="10" fill="#4040bf"/>
<rect x="85" y="55" width="10" height="10" fill="#24246b"/>
<rect x="95" y="55" width="10" height="10" fill="#4040bf"/>
<rect x="35" y="65" width="10" height="10" fill="#4040bf"/>
<rect x="45" y="65" width="10" height="10" fill="#4040bf"/>
<rect x="50" y="70" width="5" height="5" fill="#24246b"/>
<rect x="55" y="65" width="10" height="10" fill="#4040bf"/>
<rect x="65" y="65" width="10" height="10" fill="#4040bf"/>
<rect x="75" y="65" width="10" height="10" fill="#4040bf"/>
<rect x="85" y="65" width="10" height="10" fill="#4040bf"/>
<rect x="95" y="65" width="10" height="10" fill="#4040bf"/>
<rect x="35" y="75" width="10" height="10" fill="#4040bf"/>
<rect x="45" y="75" width="10" height="10" fill="#4040bf"/>
<rect x="55" y="75" width="10" height="10" fill="#4040bf"/>
<rect x="55" y="75" width="10" height="5" fill="#24246b"/>
<rect x="65" y="75" width="10" height="10" fill="#4040bf"/>
<rect x="65" y="75" width="10" height="5" fill="#24246b"/>
<rect x="75" y="75" width="10" height="10" fill="#4040bf"/>
<rect x="75" y="75" width="10" height="5" fill="#24246b"/>
<rect x="85" y="75" width="10" height="10" fill="#4040bf"/>
<rect x="95" y="75" width="10" height="10" fill="#4040bf"/>
<rect x="35" y="85" width="10" height="10" fill="#4040bf"/>
<rect x="45" y="85" width="10" height="10" fill="#4040bf"/>
<rect x="55" y="85" width="10" height="10" fill="#4040bf"/>
<rect x="65" y="85" width="10" height="10" fill="#4040bf"/>
<rect x="75" y="85" width="10" height="10" fill="#4040bf"/>
<rect x="85" y="85" width="10" height="10" fill="#4040bf"/>
<rect x="95" y="85" width="10" height="10" fill="#4040bf"/>
<rect x="35" y="95" width="10" height="10" fill="#4040bf"/>
<rect x="45" y="95" width="10" height="10" fill="#4040bf"/>
<rect x="55" y="95" width="10" height="10" fill="#4040bf"/>
<rect x="65" y="95" width="10" height="10" fill="#4040bf"/>
<rect x="75" y="95" width="10" height="10" fill="#4040bf"/>
<rect x="85" y="95" width="10" height="10" fill="#4040bf"/>
<rect x="95" y="95" width="10" height="10" fill="#4040bf"/>
<rect x="45" y="105" width="10" height="10" fill="#4040bf"/>
<rect x="75" y="105" width="10" height="10" fill="#4040bf"/>
</svg>