<svg xmlns="http://www.w3.org/2000/svg" width="44" height="44" viewBox="0 0 44 44" shape-rendering="crispEdges">
<rect x="12" y="4" width="4" height="4" fill="#8a2be2"/>
<rect x="28" y="4" width="4" height="4" fill="#8a2be2"/>
<rect x="8" y="8" width="4" height="4" fill="#8a2be2"/>
<rect x="12" y="8" width="4" height="4" fill="#8a2be2"/>
<rect x="16" y="8" width="4" height="4" fill="#8a2be2"/>
<rect x="20" y="8" width="4" height="4" fill="#8a2be2"/>
<rect x="24" y="8" width="4" height="4" fill="#8a2be2"/>
<rect x="28" y="8" width="4" height="4" fill="#8a2be2"/>
<rect x="32" y="8" width="4" height="4" fill="#8a2be2"/>
<rect x="4" y="12" width="4" height="4" fill="#8a2be2"/>
<rect x="8" y="12" width="4" height="4" fill="#8a2be2"/>
<rect x="12" y="12" width="4" height="4" fill="#320d57"/>
<rect x="16" y="12" width="4" height="4" fill="#8a2be2"/>
<rect x="20" y="12" width="4" height="4" fill="#8a2be2"/>
<rect x="24" y="12" width="4" height="4" fill="#8a2be2"/>
<rect x="28" y="12" width="4" height="4" fill="#320d57"/>
<rect x="32" y="12" width="4" height="4" fill="#8a2be2"/>
<rect x="36" y="12" width="4" height="4" fill="#8a2be2"/>
<rect x="4" y="16" width="4" height="4" fill="#8a2be2"/>
<rect x="8" y="16" width="4" height="4" fill="#8a2be2"/>
<rect x="12" y="16" width="4" height="4" fill="#320d57"/>
<rect x="16" y="16" width="4" height="4" fill="#8a2be2"/>
<rect x="20" y="16" width="4" height="4" fill="#8a2be2"/>
<rect x="24" y="16" width="4" height="4" fill="#8a2be2"/>
<rect x="28" y="16" width="4" height="4" fill="#320d57"/>
<rect x="32" y="16" width="4" height="4" fill="#8a2be2"/>
<rect x="36" y="16" width="4" height="4" fill="#8a2be2"/>
<rect x="4" y="20" width="4" height="4" fill="#8a2be2"/>
<rect x="8" y="20" width="4" height="4" fill="#8a2be2"/>
<rect x="12" y="20" width="4" height="4" fill="#8a2be2"/>
<rect x="16" y="20" width="4" height="4" fill="#8a2be2"/>
<rect x="20" y="20" width="4" height="4" fill="#8a2be2"/>
<rect x="24" y="20" width="4" height="4" fill="#8a2be2"/>
<rect x="28" y="20" width="4" height="4" fill="#8a2be2"/>
<rect x="32" y="20" width="4" height="4" fill="#8a2be2"/>
<rect x="36" y="20" width="4" height="4" fill="#8a2be2"/>
<rect x="0" y="24" width="4" height="4" fill="#8a2be2"/>
<rect x="4" y="24" width="4" height="4" fill="#8a2be2"/>
<rect x="8" y="24" width="4" height="4" fill="#8a2be2"/>
<rect x="20" y="24" width="4" height="4" fill="#320d57"/>
<rect x="12" y="24" width="4" height="4" fill="#320d57"/>
<rect x="16" y="24" width="4" height="4" fill="#320d57"/>
<rect x="24" y="24" width="4" height="4" fill="#8a2be2"/>
<rect x="28" y="24" width="4" height="4" fill="#8a2be2"/>
<rect x="32" y="24" width="4" height="4" fill="#8a2be2"/>
<rect x="36" y="24" width="4" height="4" fill="#8a2be2"/>
<rect x="40" y="24" width="4" height="4" fill="#8a2be2"/>
<rect x="8" y="28" width="4" height="4" fill="#8a2be2"/>
<rect x="12" y="28" width="4" height="4" fill="#8a2be2"/>
<rect x="16" y="28" width="4" height="4" fill="#8a2be2"/>
<rect x="20" y="28" width="4" height="4" fill="#8a2be2"/>
<rect x="24" y="28" width="4" height="4" fill="#8a2be2"/>
<rect x="28" y="28" width="4" height="4" fill="#8a2be2"/>
<rect x="32" y="28" width="4" height="4" fill="#8a2be2"/>
<rect x="12" y="32" width="4" height="4" fill="#8a2be2"/>
<rect x="20" y="32" width="4" height="4" fill="#8a2be2"/>
<rect x="28" y="32" width="4" height="4" fill="#8a2be2"/>
<rect x="8" y="36" width="4" height="4" fill="#8a2be2"/>
<rect x="32" y="36" width="4" height="4" fill="#8a2be2"/>
</svg>
